<svg xmlns="http://www.w3.org/2000/svg" viewBox="0 0 32 32">
  <defs>
    <linearGradient id="fireGradient" x1="0%" y1="0%" x2="0%" y2="100%">
      <stop offset="0%" stop-color="#ff6b35"/>
      <stop offset="50%" stop-color="#e74c3c"/>
      <stop offset="100%" stop-color="#c0392b"/>
    </linearGradient>
  </defs>
  
  <!-- Fire flame shape -->
  <path d="M16 4c-2 0-4 1-5 3-1 2-1 4 0 6 1 2 3 3 5 3s4-1 5-3c1-2 1-4 0-6-1-2-3-3-5-3z" fill="url(#fireGradient)"/>
  
  <!-- Main flame body -->
  <path d="M16 8c-3 0-6 2-7 5-1 3 0 6 2 8 2 2 5 3 8 3s6-1 8-3c2-2 3-5 2-8-1-3-4-5-7-5z" fill="url(#fireGradient)" opacity="0.8"/>
  
  <!-- Base flame -->
  <path d="M16 12c-4 0-8 3-9 7-1 4 1 8 4 10 3 2 7 3 11 3s8-1 11-3c3-2 5-6 4-10-1-4-5-7-9-7z" fill="url(#fireGradient)" opacity="0.6"/>
  
  <!-- Inner flame highlight -->
  <path d="M16 6c-1 0-2 1-2 2s1 2 2 2 2-1 2-2-1-2-2-2z" fill="#ffffff" opacity="0.3"/>
</svg>